<svg width="140" height="40" viewBox="0 0 140 40" fill="none" xmlns="http://www.w3.org/2000/svg">
<path d="M36.8184 3L35.0924 6.87177V20.493L34.6065 20.493V37.5H30.1749L20.6765 20.493L20.8911 20.493L18.859 16.8544V20.493L18.373 20.493V33.7215L20.0524 37.5H10.2097L11.9356 33.6282V20.493L12.4215 20.493V6.87177L10.6956 3H17.926L27.089 20.493L26.8508 20.48L28.2157 23.0858L28.7017 20.493V6.87177L26.9757 3H36.8184Z" fill="black"/>
<path d="M56.5685 34.5944L57.4494 37H51.1134L51.9266 34.5944L51.6894 33.4762H46.5054L46.2682 34.5605L47.1153 37H40.8809L41.728 34.696L46.1666 17.0772L45.3873 14.8071H52.6381L51.8249 17.1788L56.5685 34.5944ZM47.3186 29.3765H50.8085L48.9788 21.0753L47.3186 29.3765ZM69.2381 18.568H67.3068V34.5605L68.2894 37H61.6146L62.631 34.5605V18.568H60.6659L58.1924 19.5845L58.4974 14.8071H71.4066L71.7115 19.5845L69.2381 18.568ZM91.0853 17.2805V34.5266L92.1018 37H85.3931L86.4096 34.5266V29.7153H80.4124V34.5266L81.4289 37H74.7202L75.7366 34.5266V17.2805L74.7202 14.8071H81.4289L80.4124 17.2805V25.2428H86.4096V17.2805L85.3931 14.8071H92.1018L91.0853 17.2805ZM110.535 34.5944L111.416 37H105.08L105.894 34.5944L105.656 33.4762H100.472L100.235 34.5605L101.082 37H94.8479L95.6949 34.696L100.134 17.0772L99.3542 14.8071H106.605L105.792 17.1788L110.535 34.5944ZM101.286 29.3765H104.775L102.946 21.0753L101.286 29.3765ZM131.445 14.8071L130.429 17.2805V37H127.007L119.451 23.0066V34.5266L120.467 37H113.996L115.012 34.5266V17.2805L113.996 14.8071H119.756L125.956 27.1402V17.2805L124.94 14.8071H131.445Z" fill="black"/>
</svg>
